<svg width="51" height="51" viewBox="0 0 51 51" fill="none" xmlns="http://www.w3.org/2000/svg">
<path d="M31.2707 11.6042C33.0829 11.9577 34.8818 12.7569 36.1873 14.0625C37.4929 15.3681 38.2921 17.167 38.6457 18.9792M32.4998 3C36.2649 3.41826 39.6529 5.23971 42.3332 7.91667C45.0135 10.5936 46.8269 13.9855 47.2499 17.75M47.2485 36.1301V42.7916C47.2589 45.3381 44.9692 47.4645 42.3982 47.2327C20.2083 47.25 3 29.8818 3.01737 7.84091C2.78582 5.28366 4.90171 3.00261 7.44493 3.00022H14.1197C15.1994 2.98961 16.2462 3.37121 17.0649 4.0739C19.3925 6.07167 20.8896 12.8524 20.3136 15.548C19.8639 17.6526 17.7424 19.1249 16.3001 20.5644C19.4673 26.1235 24.0793 30.7264 29.6495 33.8874C31.0918 32.448 32.5671 30.3307 34.6758 29.8818C37.3809 29.3061 44.2053 30.8053 46.1951 33.1491C46.9007 33.9802 47.2756 35.0411 47.2485 36.1301Z" stroke="#C0B7E8" stroke-width="6" stroke-linecap="round" stroke-linejoin="round"/>
</svg>
