<svg width="41" height="62" viewBox="0 0 41 62" fill="none" xmlns="http://www.w3.org/2000/svg">
<path fill-rule="evenodd" clip-rule="evenodd" d="M20.4167 0C31.6925 0 40.8333 9.14085 40.8333 20.4167C40.8333 23.826 40.0001 27.0384 38.5206 29.865L20.4167 61.25L2.73207 30.6262C0.991667 27.6208 0 24.1359 0 20.4167C0 9.14085 9.14085 0 20.4167 0ZM20.4167 5.83333C12.3625 5.83333 5.83333 12.3625 5.83333 20.4167C5.83333 22.7327 6.36761 24.9549 7.37867 26.961L7.86865 27.8559L20.4167 49.5833L33.0533 27.7029C34.3238 25.5089 35 23.0221 35 20.4167C35 12.3625 28.4708 5.83333 20.4167 5.83333ZM20.4167 11.6667C25.2492 11.6667 29.1667 15.5842 29.1667 20.4167C29.1667 25.2492 25.2492 29.1667 20.4167 29.1667C15.5842 29.1667 11.6667 25.2492 11.6667 20.4167C11.6667 15.5842 15.5842 11.6667 20.4167 11.6667ZM20.4167 17.5C18.8058 17.5 17.5 18.8058 17.5 20.4167C17.5 22.0275 18.8058 23.3333 20.4167 23.3333C22.0275 23.3333 23.3333 22.0275 23.3333 20.4167C23.3333 18.8058 22.0275 17.5 20.4167 17.5Z" fill="#C0B7E8"/>
</svg>
